<mxfile host="app.diagrams.net" modified="2022-12-30T08:56:06.290Z" agent="5.0 (Windows NT 10.0; Win64; x64) AppleWebKit/537.36 (KHTML, like Gecko) Chrome/108.0.0.0 Safari/537.36" etag="n7WFm68_oJtnhSH3Utbs" version="20.7.4" type="github">
  <diagram id="4BMdVCB4eWE25W27CFtz" name="Main">
    <mxGraphModel dx="2234" dy="788" grid="0" gridSize="10" guides="1" tooltips="1" connect="1" arrows="1" fold="1" page="0" pageScale="1" pageWidth="827" pageHeight="1169" math="0" shadow="0">
      <root>
        <mxCell id="VvIa1sczMv5pocf-aeUb-0" />
        <mxCell id="VvIa1sczMv5pocf-aeUb-1" parent="VvIa1sczMv5pocf-aeUb-0" />
        <mxCell id="sqeSvVJFWsEA9AuavhHC-20" value="Fraud" style="rounded=0;whiteSpace=wrap;html=1;" parent="VvIa1sczMv5pocf-aeUb-1" vertex="1">
          <mxGeometry x="50" y="66" width="120" height="60" as="geometry" />
        </mxCell>
        <mxCell id="sqeSvVJFWsEA9AuavhHC-1" style="edgeStyle=none;html=1;exitX=0.5;exitY=0;exitDx=0;exitDy=0;entryX=0.5;entryY=1;entryDx=0;entryDy=0;startArrow=classic;startFill=1;fillColor=#1ba1e2;strokeColor=#006EAF;strokeWidth=3;" parent="VvIa1sczMv5pocf-aeUb-1" source="sqeSvVJFWsEA9AuavhHC-4" target="sqeSvVJFWsEA9AuavhHC-6" edge="1">
          <mxGeometry relative="1" as="geometry" />
        </mxCell>
        <mxCell id="sqeSvVJFWsEA9AuavhHC-2" value="Internal communication" style="edgeLabel;html=1;align=center;verticalAlign=middle;resizable=0;points=[];" parent="sqeSvVJFWsEA9AuavhHC-1" vertex="1" connectable="0">
          <mxGeometry x="0.1091" relative="1" as="geometry">
            <mxPoint y="16" as="offset" />
          </mxGeometry>
        </mxCell>
        <mxCell id="sqeSvVJFWsEA9AuavhHC-3" style="edgeStyle=none;html=1;exitX=1;exitY=0.75;exitDx=0;exitDy=0;entryX=0;entryY=0.5;entryDx=0;entryDy=0;entryPerimeter=0;startArrow=none;startFill=0;endArrow=none;endFill=0;strokeWidth=1;shape=link;" parent="VvIa1sczMv5pocf-aeUb-1" source="sqeSvVJFWsEA9AuavhHC-4" target="sqeSvVJFWsEA9AuavhHC-7" edge="1">
          <mxGeometry relative="1" as="geometry" />
        </mxCell>
        <mxCell id="sqeSvVJFWsEA9AuavhHC-4" value="Customer" style="rounded=0;whiteSpace=wrap;html=1;" parent="VvIa1sczMv5pocf-aeUb-1" vertex="1">
          <mxGeometry x="20" y="390" width="120" height="60" as="geometry" />
        </mxCell>
        <mxCell id="sqeSvVJFWsEA9AuavhHC-5" style="edgeStyle=none;shape=link;html=1;exitX=1;exitY=0.5;exitDx=0;exitDy=0;startArrow=none;startFill=0;endArrow=none;endFill=0;strokeWidth=1;" parent="VvIa1sczMv5pocf-aeUb-1" source="sqeSvVJFWsEA9AuavhHC-20" target="sqeSvVJFWsEA9AuavhHC-8" edge="1">
          <mxGeometry relative="1" as="geometry" />
        </mxCell>
        <mxCell id="sqeSvVJFWsEA9AuavhHC-7" value="" style="shape=cylinder3;whiteSpace=wrap;html=1;boundedLbl=1;backgroundOutline=1;size=15;" parent="VvIa1sczMv5pocf-aeUb-1" vertex="1">
          <mxGeometry x="232" y="395" width="60" height="80" as="geometry" />
        </mxCell>
        <mxCell id="sqeSvVJFWsEA9AuavhHC-8" value="" style="shape=cylinder3;whiteSpace=wrap;html=1;boundedLbl=1;backgroundOutline=1;size=15;" parent="VvIa1sczMv5pocf-aeUb-1" vertex="1">
          <mxGeometry x="245" y="56" width="60" height="80" as="geometry" />
        </mxCell>
        <mxCell id="sqeSvVJFWsEA9AuavhHC-9" style="edgeStyle=none;html=1;entryX=0;entryY=0.5;entryDx=0;entryDy=0;startArrow=none;startFill=0;endArrow=classic;endFill=1;strokeWidth=3;fillColor=#fff2cc;strokeColor=#d6b656;" parent="VvIa1sczMv5pocf-aeUb-1" target="sqeSvVJFWsEA9AuavhHC-6" edge="1">
          <mxGeometry relative="1" as="geometry">
            <mxPoint x="-178" y="286" as="sourcePoint" />
          </mxGeometry>
        </mxCell>
        <mxCell id="sqeSvVJFWsEA9AuavhHC-10" value="/fraud" style="edgeLabel;html=1;align=center;verticalAlign=middle;resizable=0;points=[];" parent="sqeSvVJFWsEA9AuavhHC-9" vertex="1" connectable="0">
          <mxGeometry x="-0.0223" y="4" relative="1" as="geometry">
            <mxPoint x="-30" y="27" as="offset" />
          </mxGeometry>
        </mxCell>
        <mxCell id="sqeSvVJFWsEA9AuavhHC-11" style="edgeStyle=none;html=1;entryX=0;entryY=0.5;entryDx=0;entryDy=0;startArrow=none;startFill=0;endArrow=classic;endFill=1;strokeWidth=3;fillColor=#fff2cc;strokeColor=#d6b656;" parent="VvIa1sczMv5pocf-aeUb-1" target="sqeSvVJFWsEA9AuavhHC-4" edge="1">
          <mxGeometry relative="1" as="geometry">
            <mxPoint x="-178" y="289" as="sourcePoint" />
          </mxGeometry>
        </mxCell>
        <mxCell id="sqeSvVJFWsEA9AuavhHC-12" value="/customer" style="edgeLabel;html=1;align=center;verticalAlign=middle;resizable=0;points=[];" parent="sqeSvVJFWsEA9AuavhHC-11" vertex="1" connectable="0">
          <mxGeometry x="-0.073" y="-1" relative="1" as="geometry">
            <mxPoint x="-29" y="-22" as="offset" />
          </mxGeometry>
        </mxCell>
        <mxCell id="sqeSvVJFWsEA9AuavhHC-13" value="" style="outlineConnect=0;dashed=0;verticalLabelPosition=bottom;verticalAlign=top;align=center;html=1;shape=mxgraph.aws3.internet_3;fillColor=#D2D3D3;gradientColor=none;strokeColor=#B266FF;strokeWidth=2;" parent="VvIa1sczMv5pocf-aeUb-1" vertex="1">
          <mxGeometry x="-412" y="250" width="79.5" height="54" as="geometry" />
        </mxCell>
        <mxCell id="sqeSvVJFWsEA9AuavhHC-14" value="" style="outlineConnect=0;dashed=0;verticalLabelPosition=bottom;verticalAlign=top;align=center;html=1;fontSize=12;fontStyle=0;aspect=fixed;pointerEvents=1;shape=mxgraph.aws4.network_load_balancer;fillColor=#6a00ff;strokeColor=#3700CC;fontColor=#ffffff;" parent="VvIa1sczMv5pocf-aeUb-1" vertex="1">
          <mxGeometry x="-252" y="250" width="74" height="74" as="geometry" />
        </mxCell>
        <mxCell id="sqeSvVJFWsEA9AuavhHC-18" value="Fraud" style="rounded=0;whiteSpace=wrap;html=1;" parent="VvIa1sczMv5pocf-aeUb-1" vertex="1">
          <mxGeometry x="36" y="88" width="120" height="60" as="geometry" />
        </mxCell>
        <mxCell id="sqeSvVJFWsEA9AuavhHC-19" value="" style="group" parent="VvIa1sczMv5pocf-aeUb-1" vertex="1" connectable="0">
          <mxGeometry x="20" y="110" width="120" height="60" as="geometry" />
        </mxCell>
        <mxCell id="sqeSvVJFWsEA9AuavhHC-6" value="Fraud" style="rounded=0;whiteSpace=wrap;html=1;" parent="sqeSvVJFWsEA9AuavhHC-19" vertex="1">
          <mxGeometry width="120" height="60" as="geometry" />
        </mxCell>
        <mxCell id="sqeSvVJFWsEA9AuavhHC-15" value="" style="aspect=fixed;html=1;points=[];align=center;image;fontSize=12;image=img/lib/mscae/Docker.svg;strokeColor=#000000;strokeWidth=0;fillColor=none;" parent="sqeSvVJFWsEA9AuavhHC-19" vertex="1">
          <mxGeometry x="87.1" y="9.000000000000014" width="23.12" height="18.96" as="geometry" />
        </mxCell>
        <mxCell id="sqeSvVJFWsEA9AuavhHC-21" value="Customer" style="rounded=0;whiteSpace=wrap;html=1;" parent="VvIa1sczMv5pocf-aeUb-1" vertex="1">
          <mxGeometry x="36" y="409" width="120" height="60" as="geometry" />
        </mxCell>
        <mxCell id="sqeSvVJFWsEA9AuavhHC-22" value="Customer" style="rounded=0;whiteSpace=wrap;html=1;" parent="VvIa1sczMv5pocf-aeUb-1" vertex="1">
          <mxGeometry x="46" y="427" width="120" height="60" as="geometry" />
        </mxCell>
        <mxCell id="sqeSvVJFWsEA9AuavhHC-16" value="" style="aspect=fixed;html=1;points=[];align=center;image;fontSize=12;image=img/lib/mscae/Docker.svg;strokeColor=#000000;strokeWidth=0;fillColor=none;" parent="VvIa1sczMv5pocf-aeUb-1" vertex="1">
          <mxGeometry x="136.99999999999997" y="433" width="20.73" height="17" as="geometry" />
        </mxCell>
        <mxCell id="gZ6arKePF3R_qXDye3f3-0" value="" style="shape=image;verticalLabelPosition=bottom;labelBackgroundColor=#ffffff;verticalAlign=top;aspect=fixed;imageAspect=0;image=https://upload.wikimedia.org/wikipedia/commons/thumb/2/29/Postgresql_elephant.svg/1200px-Postgresql_elephant.svg.png;" parent="VvIa1sczMv5pocf-aeUb-1" vertex="1">
          <mxGeometry x="247.46000000000004" y="435" width="29.07" height="30" as="geometry" />
        </mxCell>
        <mxCell id="gZ6arKePF3R_qXDye3f3-1" value="" style="shape=image;verticalLabelPosition=bottom;labelBackgroundColor=#ffffff;verticalAlign=top;aspect=fixed;imageAspect=0;image=https://upload.wikimedia.org/wikipedia/commons/thumb/2/29/Postgresql_elephant.svg/1200px-Postgresql_elephant.svg.png;" parent="VvIa1sczMv5pocf-aeUb-1" vertex="1">
          <mxGeometry x="260.46000000000004" y="96" width="29.07" height="30" as="geometry" />
        </mxCell>
        <mxCell id="gZ6arKePF3R_qXDye3f3-2" style="edgeStyle=none;html=1;startArrow=none;startFill=0;endArrow=classic;endFill=1;strokeWidth=3;fillColor=#fff2cc;strokeColor=#d6b656;" parent="VvIa1sczMv5pocf-aeUb-1" edge="1">
          <mxGeometry relative="1" as="geometry">
            <mxPoint x="-320" y="286.65999999999997" as="sourcePoint" />
            <mxPoint x="-258" y="286.65999999999997" as="targetPoint" />
          </mxGeometry>
        </mxCell>
        <mxCell id="8TkGhMzJDVNN6pFFRsk9-0" value="" style="rounded=0;whiteSpace=wrap;html=1;fontStyle=1;fillColor=none;strokeWidth=2;dashed=1;" parent="VvIa1sczMv5pocf-aeUb-1" vertex="1">
          <mxGeometry x="-60" y="35" width="595" height="480" as="geometry" />
        </mxCell>
        <mxCell id="8TkGhMzJDVNN6pFFRsk9-1" style="edgeStyle=none;html=1;exitX=0.5;exitY=1;exitDx=0;exitDy=0;startArrow=none;startFill=0;endArrow=none;endFill=0;strokeWidth=1;shape=link;" parent="VvIa1sczMv5pocf-aeUb-1" source="8TkGhMzJDVNN6pFFRsk9-5" target="8TkGhMzJDVNN6pFFRsk9-3" edge="1">
          <mxGeometry relative="1" as="geometry" />
        </mxCell>
        <mxCell id="8TkGhMzJDVNN6pFFRsk9-2" value="Customer" style="rounded=0;whiteSpace=wrap;html=1;" parent="VvIa1sczMv5pocf-aeUb-1" vertex="1">
          <mxGeometry x="312" y="212" width="120" height="60" as="geometry" />
        </mxCell>
        <mxCell id="8TkGhMzJDVNN6pFFRsk9-3" value="" style="shape=cylinder3;whiteSpace=wrap;html=1;boundedLbl=1;backgroundOutline=1;size=15;" parent="VvIa1sczMv5pocf-aeUb-1" vertex="1">
          <mxGeometry x="368" y="370" width="60" height="80" as="geometry" />
        </mxCell>
        <mxCell id="8TkGhMzJDVNN6pFFRsk9-4" value="Customer" style="rounded=0;whiteSpace=wrap;html=1;" parent="VvIa1sczMv5pocf-aeUb-1" vertex="1">
          <mxGeometry x="328" y="231" width="120" height="60" as="geometry" />
        </mxCell>
        <mxCell id="8TkGhMzJDVNN6pFFRsk9-5" value="Notification" style="rounded=0;whiteSpace=wrap;html=1;" parent="VvIa1sczMv5pocf-aeUb-1" vertex="1">
          <mxGeometry x="338" y="249" width="120" height="60" as="geometry" />
        </mxCell>
        <mxCell id="8TkGhMzJDVNN6pFFRsk9-6" value="" style="shape=image;verticalLabelPosition=bottom;labelBackgroundColor=#ffffff;verticalAlign=top;aspect=fixed;imageAspect=0;image=https://upload.wikimedia.org/wikipedia/commons/thumb/2/29/Postgresql_elephant.svg/1200px-Postgresql_elephant.svg.png;" parent="VvIa1sczMv5pocf-aeUb-1" vertex="1">
          <mxGeometry x="383.46000000000004" y="413" width="29.07" height="30" as="geometry" />
        </mxCell>
        <mxCell id="8TkGhMzJDVNN6pFFRsk9-7" value="" style="aspect=fixed;html=1;points=[];align=center;image;fontSize=12;image=img/lib/mscae/Docker.svg;strokeColor=#000000;strokeWidth=0;fillColor=none;" parent="VvIa1sczMv5pocf-aeUb-1" vertex="1">
          <mxGeometry x="427.27" y="255" width="20.73" height="17" as="geometry" />
        </mxCell>
        <mxCell id="8TkGhMzJDVNN6pFFRsk9-8" style="edgeStyle=none;html=1;startArrow=classic;startFill=1;fillColor=#1ba1e2;strokeColor=#006EAF;strokeWidth=3;" parent="VvIa1sczMv5pocf-aeUb-1" edge="1">
          <mxGeometry relative="1" as="geometry">
            <mxPoint x="162" y="407" as="sourcePoint" />
            <mxPoint x="315" y="280" as="targetPoint" />
          </mxGeometry>
        </mxCell>
        <mxCell id="8TkGhMzJDVNN6pFFRsk9-9" value="Internal communication" style="edgeLabel;html=1;align=center;verticalAlign=middle;resizable=0;points=[];" parent="8TkGhMzJDVNN6pFFRsk9-8" vertex="1" connectable="0">
          <mxGeometry x="0.1091" relative="1" as="geometry">
            <mxPoint x="-8" y="3" as="offset" />
          </mxGeometry>
        </mxCell>
        <mxCell id="8TkGhMzJDVNN6pFFRsk9-10" value="Private Network" style="text;html=1;align=center;verticalAlign=middle;resizable=0;points=[];autosize=1;strokeColor=#6c8ebf;fillColor=#dae8fc;" parent="VvIa1sczMv5pocf-aeUb-1" vertex="1">
          <mxGeometry x="417" y="56" width="95" height="18" as="geometry" />
        </mxCell>
      </root>
    </mxGraphModel>
  </diagram>
</mxfile>
